<svg width="61" height="61" viewBox="0 0 61 61" fill="#000" xmlns="http://www.w3.org/2000/svg">
<path d="M0.84375 30.5C0.84375 46.8779 14.1221 60.1562 30.5 60.1562C46.8779 60.1562 60.1562 46.8779 60.1562 30.5C60.1562 14.1221 46.8779 0.84375 30.5 0.84375C14.1221 0.84375 0.84375 14.1221 0.84375 30.5ZM31.163 17.4741C31.3757 17.6851 31.5448 17.9359 31.6606 18.2122C31.7764 18.4886 31.8366 18.7851 31.8378 19.0847C31.8389 19.3843 31.7811 19.6812 31.6675 19.9585C31.554 20.2357 31.3869 20.4879 31.1758 20.7006L23.7161 28.2188H42.7617C43.3667 28.2188 43.947 28.4591 44.3748 28.8869C44.8026 29.3147 45.043 29.895 45.043 30.5C45.043 31.105 44.8026 31.6853 44.3748 32.1131C43.947 32.5409 43.3667 32.7812 42.7617 32.7812H23.7161L31.1758 40.2994C31.3868 40.5123 31.5539 40.7646 31.6673 41.0421C31.7808 41.3195 31.8386 41.6166 31.8372 41.9163C31.8359 42.2161 31.7756 42.5126 31.6596 42.789C31.5437 43.0655 31.3745 43.3163 31.1616 43.5274C30.9487 43.7384 30.6963 43.9054 30.4189 44.0189C30.1414 44.1324 29.8444 44.1901 29.5446 44.1888C29.2449 44.1874 28.9483 44.1271 28.6719 44.0112C28.3955 43.8952 28.1446 43.726 27.9336 43.5131L16.6143 32.1069C16.1903 31.6796 15.9524 31.102 15.9524 30.5C15.9524 29.898 16.1903 29.3204 16.6143 28.8931L27.9336 17.4869C28.1446 17.2737 28.3957 17.1043 28.6723 16.9883C28.9489 16.8722 29.2457 16.8119 29.5456 16.8107C29.8456 16.8095 30.1428 16.8675 30.4204 16.9813C30.6979 17.0951 30.9503 17.2626 31.163 17.4741Z" fill="white"/>
</svg>
