<svg width="940" height="983" viewBox="0 0 940 983" fill="none" xmlns="http://www.w3.org/2000/svg">
<path d="M869.592 260.902L555.09 73.9159C543.793 67.5316 531.014 64.1741 518.01 64.1741C505.007 64.1741 492.227 67.5316 480.931 73.9159L166.408 260.882C155.073 267.768 145.721 277.435 139.256 288.949C132.791 300.464 129.431 313.436 129.5 326.614V700.045C129.432 713.231 132.792 726.211 139.257 737.735C145.721 749.259 155.072 758.938 166.408 765.837L248.883 814.66L249.348 814.921C290.991 836.042 306.935 836.042 325.409 836.042C390.442 836.042 430.851 794.32 430.851 727.144V365.066C430.888 360.546 429.116 356.195 425.922 352.969C422.728 349.743 418.373 347.904 413.813 347.856H368.529C363.969 347.904 359.614 349.743 356.42 352.969C353.226 356.195 351.454 360.546 351.491 365.066V727.144C351.656 732.328 350.466 737.465 348.038 742.059C345.609 746.652 342.024 750.545 337.631 753.361C325.692 760.582 308.352 759.057 288.785 749.048L209.75 701.89C209.447 701.686 209.2 701.41 209.031 701.088C208.861 700.766 208.775 700.408 208.778 700.045V331.89C208.791 331.466 208.906 331.052 209.114 330.682C209.322 330.312 209.616 329.997 209.972 329.763L517.211 143.218C517.44 143.105 517.693 143.046 517.949 143.046C518.206 143.046 518.458 143.105 518.688 143.218L826.109 329.763C826.458 330.016 826.742 330.349 826.936 330.732C827.129 331.116 827.227 331.541 827.222 331.97V700.045C827.229 700.425 827.152 700.803 826.994 701.149C826.837 701.496 826.603 701.804 826.311 702.051L518.627 883.882C518.103 884.062 517.533 884.062 517.008 883.882L438.438 837.627C436.106 836.115 433.411 835.243 430.628 835.099C427.846 834.954 425.074 835.543 422.595 836.804L421.907 837.206C400.216 849.943 394.388 853.253 374.275 860.514C370.997 861.697 363.288 864.525 362.62 872.088C361.952 879.65 369.277 885.025 375.793 888.776L480.809 952.703C491.998 959.347 504.795 962.862 517.838 962.873H519.012C531.729 962.675 544.17 959.168 555.09 952.703L869.592 765.897C880.922 758.977 890.266 749.285 896.729 737.754C903.192 726.222 906.557 713.237 906.5 700.045V326.614C906.564 313.44 903.201 300.472 896.736 288.962C890.271 277.451 880.923 267.787 869.592 260.902V260.902Z" fill="url(#paint0_linear_41_73)"/>
<path d="M622.976 637.964C547.522 637.964 531.436 617.062 526.66 583.324C526.123 579.307 524.148 575.615 521.095 572.92C518.042 570.225 514.115 568.707 510.028 568.641H469.964C465.448 568.736 461.155 570.6 458.022 573.825C454.89 577.051 453.174 581.375 453.25 585.851C453.25 615.097 463.61 710.556 623.057 710.556C672.388 710.556 713.424 699.122 741.691 677.479C769.958 655.836 785.094 624.344 785.094 586.814C785.094 511.494 735.52 490.874 637.889 477.395C538.639 463.715 538.639 456.754 538.639 441.51C538.639 430.538 538.639 404.843 610.39 404.843C661.441 404.843 688.778 411.241 697.519 444.96C698.294 448.698 700.332 452.062 703.298 454.495C706.264 456.928 709.979 458.284 713.828 458.339H754.034C756.403 458.316 758.741 457.792 760.89 456.803C763.039 455.813 764.951 454.381 766.498 452.602C769.59 449.025 771.131 444.382 770.788 439.684C765.588 368.376 712.999 332.21 610.451 332.21C517.251 332.21 461.627 373.832 461.627 443.536C461.627 519.959 519.275 541.562 605.878 550.508C707.05 560.878 707.05 576.003 707.05 589.362C707.11 610.182 698.389 637.964 622.976 637.964Z" fill="url(#paint1_linear_41_73)"/>
<defs>
<linearGradient id="paint0_linear_41_73" x1="850.94" y1="480.291" x2="141.615" y2="473.564" gradientUnits="userSpaceOnUse">
<stop stop-color="#FAFF02"/>
<stop offset="1" stop-color="#FAFF02" stop-opacity="0"/>
</linearGradient>
<linearGradient id="paint1_linear_41_73" x1="739.403" y1="332.094" x2="132.424" y2="332.094" gradientUnits="userSpaceOnUse">
<stop stop-color="#FAFF02"/>
<stop offset="1" stop-color="#FAFF02" stop-opacity="0"/>
</linearGradient>
</defs>
</svg>
